<svg id="_220volt_studio" data-name="220volt studio" xmlns="http://www.w3.org/2000/svg" width="100.334" height="15.962" viewBox="0 0 100.334 15.962">
  <path id="Контур_58" data-name="Контур 58" d="M16.483,15.514h-5.97a3.8,3.8,0,0,1-.643-.044,1.568,1.568,0,0,1-.479-.142.7.7,0,0,1-.338-.349,1.14,1.14,0,0,1-.109-.5,1.238,1.238,0,0,1,.065-.393,1.882,1.882,0,0,1,.185-.36l.011-.011a1.639,1.639,0,0,1,.24-.24c.1-.087.218-.2.381-.327l4.129-3.34a6.78,6.78,0,0,0,.7-.644,3.375,3.375,0,0,0,.468-.633,2.352,2.352,0,0,0,.262-.644,3.134,3.134,0,0,0,.087-.731,2.774,2.774,0,0,0-.185-1.026,2.251,2.251,0,0,0-.545-.808,2.276,2.276,0,0,0-.828-.524,2.88,2.88,0,0,0-1.046-.186A3,3,0,0,0,11.8,4.8a2.519,2.519,0,0,0-.85.546,2.426,2.426,0,0,0-.556.819,2.76,2.76,0,0,0-.185,1.015,2.974,2.974,0,0,0,.185,1.07,2.732,2.732,0,0,0,.327.578l-.828.742a3.418,3.418,0,0,1-.654-1.026A3.342,3.342,0,0,1,9.01,7.284,3.832,3.832,0,0,1,9.282,5.8,3.76,3.76,0,0,1,10.1,4.577a3.416,3.416,0,0,1,1.242-.8,4.261,4.261,0,0,1,1.525-.262,4.065,4.065,0,0,1,1.482.262,3.624,3.624,0,0,1,1.22.775,3.437,3.437,0,0,1,1.089,2.6A3.685,3.685,0,0,1,16.516,8.2a3.522,3.522,0,0,1-.425.95,5.673,5.673,0,0,1-.654.83,8.563,8.563,0,0,1-.959.873l-4.1,3.34c-.076.076-.109.131-.109.153s.033.022.1.022h6.351v1.113h-.24Zm-8.934,0H1.569a3.8,3.8,0,0,1-.643-.044,1.567,1.567,0,0,1-.479-.142.7.7,0,0,1-.338-.349,1.14,1.14,0,0,1-.109-.5,1.238,1.238,0,0,1,.065-.393,1.885,1.885,0,0,1,.185-.36l.011-.011a1.638,1.638,0,0,1,.24-.24c.1-.087.218-.2.381-.327l4.129-3.34a6.77,6.77,0,0,0,.7-.644,3.38,3.38,0,0,0,.468-.633,2.356,2.356,0,0,0,.261-.644,3.129,3.129,0,0,0,.087-.731,2.776,2.776,0,0,0-.185-1.026A2.254,2.254,0,0,0,5.8,5.319,2.276,2.276,0,0,0,4.968,4.8,2.88,2.88,0,0,0,3.922,4.61,3,3,0,0,0,2.854,4.8,2.519,2.519,0,0,0,2,5.341a2.426,2.426,0,0,0-.556.819,2.759,2.759,0,0,0-.185,1.015,2.973,2.973,0,0,0,.185,1.07,2.732,2.732,0,0,0,.327.578l-.828.742A3.168,3.168,0,0,1,.294,8.539,3.342,3.342,0,0,1,.065,7.284,3.832,3.832,0,0,1,.338,5.8a3.649,3.649,0,0,1,.817-1.222A3.416,3.416,0,0,1,2.4,3.78a4.261,4.261,0,0,1,1.525-.262A4.064,4.064,0,0,1,5.4,3.78,3.662,3.662,0,0,1,7.441,5.723a3.56,3.56,0,0,1,.272,1.43A3.69,3.69,0,0,1,7.572,8.2a3.526,3.526,0,0,1-.425.95,5.678,5.678,0,0,1-.654.83,8.573,8.573,0,0,1-.959.873l-4.1,3.34c-.076.076-.109.131-.109.153s.033.022.1.022H7.779v1.113h-.24A.054.054,0,0,1,7.55,15.514ZM21.386,5l-.044.011a5.4,5.4,0,0,0-2.615,2.74,4.98,4.98,0,0,0-.36,1.856,4.772,4.772,0,0,0,.36,1.856A5.251,5.251,0,0,0,19.8,13.091a4.958,4.958,0,0,0,1.547,1.124,4.539,4.539,0,0,0,3.6,0,4.96,4.96,0,0,0,1.547-1.124,5.2,5.2,0,0,0,1.068-1.615,5.022,5.022,0,0,0,.36-1.856,4.733,4.733,0,0,0-.36-1.856,4.9,4.9,0,0,0-1.068-1.615A4.835,4.835,0,0,0,24.883,5l.73-1.048A5.772,5.772,0,0,1,27.4,5.243a6.063,6.063,0,0,1,1.275,1.987A6.544,6.544,0,0,1,29.1,9.609a6.544,6.544,0,0,1-.425,2.379,5.924,5.924,0,0,1-1.286,1.987,5.671,5.671,0,0,1-1.917,1.343,6.13,6.13,0,0,1-4.652,0,6.039,6.039,0,0,1-1.928-1.343,6.4,6.4,0,0,1-1.286-1.987,6.5,6.5,0,0,1-.425-2.379,6.5,6.5,0,0,1,.425-2.379,5.926,5.926,0,0,1,1.286-1.987,5.774,5.774,0,0,1,1.787-1.288Zm15.1,2.456H37.64l-.131.327-2.8,7.16a.8.8,0,0,1-.163.317.915.915,0,0,1-.251.251,1.107,1.107,0,0,1-.305.142,1.221,1.221,0,0,1-.349.044A1.194,1.194,0,0,1,33,15.514a1.142,1.142,0,0,1-.262-.251,1.24,1.24,0,0,1-.163-.317L29.666,7.8l-.131-.338h1.318l.065.164,2.636,6.8a.245.245,0,0,0,.076.131.038.038,0,0,0,.022-.011.356.356,0,0,0,.065-.131l2.495-6.789.065-.164Zm5.186.873a2.682,2.682,0,0,0-2.146,1,3.027,3.027,0,0,0-.577.982,3.143,3.143,0,0,0-.185,1.113,2.683,2.683,0,0,0,.207,1.048,3.685,3.685,0,0,0,.643,1.015,2.666,2.666,0,0,0,2.07,1.048,2.752,2.752,0,0,0,1.122-.229,3.216,3.216,0,0,0,.948-.72,3.146,3.146,0,0,0,.861-2.15,3,3,0,0,0-.207-1.135,3.106,3.106,0,0,0-.632-1,2.692,2.692,0,0,0-2.1-.971Zm4.053,3.111a4.429,4.429,0,0,0-.272-1.583,4.242,4.242,0,0,0-.806-1.343,3.867,3.867,0,0,0-1.329-.993A4.078,4.078,0,0,0,41.66,7.2a3.766,3.766,0,0,0-2.92,1.266,4.316,4.316,0,0,0-1.133,2.991,4.432,4.432,0,0,0,.272,1.583,4.16,4.16,0,0,0,.828,1.353,3.865,3.865,0,0,0,1.329.993,4.077,4.077,0,0,0,1.656.327,3.835,3.835,0,0,0,1.667-.349,4.006,4.006,0,0,0,1.34-1.026A4.448,4.448,0,0,0,45.724,11.442Zm.97,3.831V3.66h1.133V15.514H46.694ZM49.265,4.053h.893V7.448h2.887V8.561H50.158v4.552a1.162,1.162,0,0,0,.12.557,1.476,1.476,0,0,0,.381.458,2.057,2.057,0,0,0,1.231.415,2.131,2.131,0,0,0,.85-.186,2.428,2.428,0,0,0,.4-.229,1.916,1.916,0,0,0,.359-.306l.185-.186.174.2.5.568.174.2-.207.164a4.683,4.683,0,0,1-.566.382c-.2.109-.4.218-.6.306a3.5,3.5,0,0,1-.632.2,3.215,3.215,0,0,1-.643.065,3.122,3.122,0,0,1-2.015-.677,2.212,2.212,0,0,1-.643-.819,2.462,2.462,0,0,1-.207-1.048V4.075h.24Z" transform="translate(0 -1.914)" fill="#fff" fill-rule="evenodd"/>
  <path id="Контур_59" data-name="Контур 59" d="M49.281.655a.654.654,0,1,1,1.307,0v4.29a.654.654,0,1,1-1.307,0Z" transform="translate(-26.806)" fill="#4199c7" fill-rule="evenodd"/>
  <path id="Контур_60" data-name="Контур 60" d="M163.829,0H123.391a2.364,2.364,0,0,0-2.346,2.38v11.2a2.364,2.364,0,0,0,2.346,2.38h40.438a2.363,2.363,0,0,0,2.346-2.38V2.38A2.363,2.363,0,0,0,163.829,0Z" transform="translate(-65.841)" fill="#4199c7"/>
  <path id="Контур_61" data-name="Контур 61" d="M156.449,17.4V11.943h1.133v5.2a2.028,2.028,0,0,0,.163.84,1.878,1.878,0,0,0,.5.644,2.143,2.143,0,0,0,.675.371,2.491,2.491,0,0,0,.828.12,2.4,2.4,0,0,0,.85-.142,2.023,2.023,0,0,0,.719-.426,1.77,1.77,0,0,0,.479-.633,2.149,2.149,0,0,0,.164-.819V11.943h1.133v5.327a2.7,2.7,0,0,1-1.057,2.194,3.687,3.687,0,0,1-1.068.6,3.78,3.78,0,0,1-1.231.2,4.077,4.077,0,0,1-1.22-.186,3.226,3.226,0,0,1-1.046-.557,2.679,2.679,0,0,1-.8-.939A3.2,3.2,0,0,1,156.449,17.4Z" transform="translate(-85.098 -6.496)" fill="#fff" fill-rule="evenodd"/>
  <path id="Контур_62" data-name="Контур 62" d="M142.571,4.475h.893V7.87h2.887V8.983h-2.887v4.552a1.157,1.157,0,0,0,.12.557,1.476,1.476,0,0,0,.381.458,2.056,2.056,0,0,0,1.231.415,2.13,2.13,0,0,0,.85-.186,2.408,2.408,0,0,0,.4-.229,1.921,1.921,0,0,0,.36-.306l.185-.186.174.2.5.568.174.2-.207.164a4.682,4.682,0,0,1-.566.382c-.2.109-.4.218-.6.306a3.511,3.511,0,0,1-.632.2,3.208,3.208,0,0,1-.643.065,3.122,3.122,0,0,1-2.015-.677,2.218,2.218,0,0,1-.643-.819,2.469,2.469,0,0,1-.207-1.048V4.5h.239Z" transform="translate(-77.419 -2.434)" fill="#fff" fill-rule="evenodd"/>
  <path id="Контур_63" data-name="Контур 63" d="M205.787,14.247a4.235,4.235,0,0,0-.806-1.343,4.407,4.407,0,0,0-.621-.579,3.55,3.55,0,0,0-.708-.415A4.077,4.077,0,0,0,202,11.583a3.767,3.767,0,0,0-2.92,1.266,4.317,4.317,0,0,0-1.133,2.991,4.434,4.434,0,0,0,.272,1.583,4.16,4.16,0,0,0,.828,1.353,4.388,4.388,0,0,0,.621.578,3.54,3.54,0,0,0,.708.415,4.078,4.078,0,0,0,1.656.327,3.836,3.836,0,0,0,1.667-.349,4.011,4.011,0,0,0,1.34-1.026,4.391,4.391,0,0,0,.773-1.343,4.5,4.5,0,0,0,.261-1.55A4.977,4.977,0,0,0,205.787,14.247Zm-1.721,3.733a2.96,2.96,0,0,1-.948.72,2.553,2.553,0,0,1-1.122.229,2.665,2.665,0,0,1-2.07-1.048,3.141,3.141,0,0,1-.37-.5,3.3,3.3,0,0,1-.272-.513,2.687,2.687,0,0,1-.207-1.048,3.418,3.418,0,0,1,.185-1.113,3.481,3.481,0,0,1,.577-.982,2.682,2.682,0,0,1,2.146-1,3.054,3.054,0,0,1,1.144.229,2.195,2.195,0,0,1,.5.306,2.789,2.789,0,0,1,.458.426,3.445,3.445,0,0,1,.632,1,3.228,3.228,0,0,1,.207,1.135A3.152,3.152,0,0,1,204.066,17.98Z" transform="translate(-107.668 -6.301)" fill="#fff" fill-rule="evenodd"/>
  <path id="Контур_64" data-name="Контур 64" d="M193.356,19.908v-7.99H194.5v8.164h-1.144Z" transform="translate(-105.173 -6.483)" fill="#fff" fill-rule="evenodd"/>
  <path id="Контур_65" data-name="Контур 65" d="M131.9,16.652c-.043-.044-.163-.142-.327-.273a1.513,1.513,0,0,0-.4-.218c-1.274-.524-2.756-.546-3.955-1.222a.58.58,0,0,1-.261-.207c-.163-.317.174-.819.425-1.07a1.832,1.832,0,0,1,.784-.469,2.43,2.43,0,0,1,.784-.12,2.926,2.926,0,0,1,.534.044,2.237,2.237,0,0,1,.468.142,3.032,3.032,0,0,1,.447.251,2.145,2.145,0,0,1,.425.393,1.815,1.815,0,0,1,.305.568h1.2a2.507,2.507,0,0,0-.371-1.124,2.8,2.8,0,0,0-1.057-.95,3.822,3.822,0,0,0-1.275-.426,4.49,4.49,0,0,0-1.3.022,2.942,2.942,0,0,0-.523.131,3.04,3.04,0,0,0-.381.153,3.223,3.223,0,0,0-.664.4,2.652,2.652,0,0,0-.686.731,1.9,1.9,0,0,0-.316,1.441,2.1,2.1,0,0,0,1.373,1.266c1.09.426,2.32.393,3.377.917a1.487,1.487,0,0,1,.284.164.723.723,0,0,1,.348.371c.163.458-.37.939-.708,1.168a2.593,2.593,0,0,1-1.362.415,2.491,2.491,0,0,1-1.351-.338,1.821,1.821,0,0,1-.817-1.091h-1.166a2.278,2.278,0,0,0,.664,1.506,3.381,3.381,0,0,0,1.471.851,3.956,3.956,0,0,0,2.386-.022A3.029,3.029,0,0,0,132.28,18.1a1.554,1.554,0,0,0-.12-1.1A1.636,1.636,0,0,0,131.9,16.652Z" transform="translate(-68.38 -6.49)" fill="#fff"/>
  <path id="Контур_66" data-name="Контур 66" d="M181.264,12.093V4.715H180.12V9.1a.011.011,0,0,0-.011-.011,4.008,4.008,0,0,0-.556-.5,3.534,3.534,0,0,0-.708-.415l-.164-.065a4.1,4.1,0,0,0-1.482-.262,3.766,3.766,0,0,0-2.919,1.266,4.315,4.315,0,0,0-1.133,2.991,4.433,4.433,0,0,0,.272,1.583,4.162,4.162,0,0,0,.828,1.353,4.408,4.408,0,0,0,.621.579,3.55,3.55,0,0,0,.708.415,4.077,4.077,0,0,0,1.656.327,4.141,4.141,0,0,0,.643-.044,3.7,3.7,0,0,0,1.024-.306,4.006,4.006,0,0,0,1.34-1.026,4.569,4.569,0,0,0,.5-.731h.011a4.338,4.338,0,0,0,.272-.611,4.5,4.5,0,0,0,.251-1.277Zm-1.994,2.15a2.96,2.96,0,0,1-.948.72,1.916,1.916,0,0,1-.479.164,3.031,3.031,0,0,1-.632.065,2.478,2.478,0,0,1-1.155-.284,3.239,3.239,0,0,1-.915-.753,3.09,3.09,0,0,1-.37-.5,3.343,3.343,0,0,1-.273-.513,2.687,2.687,0,0,1-.207-1.048,3.418,3.418,0,0,1,.185-1.113,3.473,3.473,0,0,1,.578-.982,2.682,2.682,0,0,1,2.146-1h.033a2.891,2.891,0,0,1,1.111.229,2.215,2.215,0,0,1,.5.306,2.8,2.8,0,0,1,.457.426,3.435,3.435,0,0,1,.632,1,2.9,2.9,0,0,1,.186.819.221.221,0,0,0,.01.087v.447a.25.25,0,0,1-.01.087A3.227,3.227,0,0,1,179.27,14.244Z" transform="translate(-94.181 -2.565)" fill="#fff" fill-rule="evenodd"/>
  <path id="Контур_67" data-name="Контур 67" d="M193.356,9.046V7.922H194.5V9.068h-1.144Z" transform="translate(-105.173 -4.309)" fill="#fff" fill-rule="evenodd"/>
</svg>
