<svg id="keys" xmlns="http://www.w3.org/2000/svg" width="22.965" height="22.965" viewBox="0 0 22.965 22.965">
  <path id="Контур_103" data-name="Контур 103" d="M2.631,0A2.631,2.631,0,0,0,0,2.631V11H11V0ZM6.937,6.459H5.98v.957a.718.718,0,0,1-1.435,0V6.459H3.588a.718.718,0,0,1,0-1.435h.957V4.067a.718.718,0,1,1,1.435,0v.957h.957a.718.718,0,0,1,0,1.435Z" fill="#f2ffff"/>
  <path id="Контур_104" data-name="Контур 104" d="M0,12.5v8.373A2.631,2.631,0,0,0,2.631,23.5H11v-11Zm7.205,6.191a.717.717,0,1,1-1.014,1.014L5.5,19.016l-.689.689A.718.718,0,0,1,3.8,18.69L4.488,18,3.8,17.312A.718.718,0,0,1,4.814,16.3l.689.689.689-.689a.718.718,0,0,1,1.015,1.015L6.518,18Z" transform="translate(0 -0.539)" fill="#f2ffff"/>
  <path id="Контур_105" data-name="Контур 105" d="M20.873,0H12.5V11h11V2.631A2.631,2.631,0,0,0,20.873,0Zm-.478,6.22H16.088a.718.718,0,1,1,0-1.435h4.306a.718.718,0,0,1,0,1.435Z" transform="translate(-0.539)" fill="#f2ffff"/>
  <path id="Контур_106" data-name="Контур 106" d="M12.5,12.5v11h8.373A2.631,2.631,0,0,0,23.5,20.873V12.5Zm7.655,7.655H15.849a.718.718,0,1,1,0-1.435h4.306a.718.718,0,0,1,0,1.435Zm0-2.871H15.849a.718.718,0,1,1,0-1.435h4.306a.718.718,0,1,1,0,1.435Z" transform="translate(-0.539 -0.539)" fill="#f2ffff"/>
</svg>
