<?xml version="1.0"?>
<svg xmlns="http://www.w3.org/2000/svg" xmlns:xlink="http://www.w3.org/1999/xlink" xmlns:svgjs="http://svgjs.com/svgjs" version="1.1" width="512" height="512" x="0" y="0" viewBox="0 0 512 512" style="enable-background:new 0 0 512 512" xml:space="preserve" class=""><g><g xmlns="http://www.w3.org/2000/svg"><path d="m507.53 129.124-126.612-124.807c-2.807-2.766-6.589-4.317-10.53-4.317h-295.557c-8.284 0-15 6.716-15 15v114.959c-34.332 8.631-59.831 39.752-59.831 76.724v157.483c0 36.973 25.499 68.093 59.831 76.725v56.109c0 8.284 6.716 15 15 15h422.169c8.284 0 15-6.716 15-15v-357.194c0-4.015-1.61-7.863-4.47-10.682zm-122.142-78.275 75.028 73.958h-60.037c-8.267 0-14.991-6.729-14.991-15zm-355.388 313.318v-157.484c0-27.08 22.031-49.111 49.111-49.111h157.395c27.08 0 49.111 22.031 49.111 49.111v157.483c0 27.08-22.031 49.111-49.111 49.111h-157.395c-27.08.001-49.111-22.03-49.111-49.11zm59.831 117.833v-38.722h146.675c43.622 0 79.111-35.489 79.111-79.111v-157.484c0-43.622-35.489-79.111-79.111-79.111h-146.675v-97.572h265.557v79.806c0 24.813 20.183 45 44.991 45h81.621v327.194z" fill="#ffffff" data-original="#000000" style="" class=""/><path d="m98.589 350.67c6.118 5.556 15.606 5.121 21.188-1.026l38.031-41.901 38.031 41.901c5.581 6.147 15.072 6.581 21.188 1.026 6.135-5.568 6.594-15.054 1.026-21.188l-39.988-44.057 39.988-44.057c5.567-6.134 5.108-15.621-1.026-21.188-6.136-5.568-15.62-5.108-21.188 1.026l-38.031 41.901-38.031-41.901c-5.568-6.134-15.055-6.594-21.188-1.026-6.135 5.568-6.594 15.054-1.026 21.188l39.988 44.057-39.988 44.057c-5.568 6.134-5.109 15.621 1.026 21.188z" fill="#ffffff" data-original="#000000" style="" class=""/></g></g></svg>
