<svg xmlns="http://www.w3.org/2000/svg" width="25" height="25" viewBox="0 0 25 25">
  <path id="Контур_97" data-name="Контур 97" d="M439.546-135.132v-10.09l2.788-.117.388-3.34h-3.179v-.587c0-.526,0-1.051,0-1.577a.947.947,0,0,1,.975-.968c.715,0,1.429,0,2.161,0v-3.44c-.019-.014-.035-.035-.051-.035-1.262.006-2.526-.029-3.784.037a3.718,3.718,0,0,0-2.146.787,3.4,3.4,0,0,0-1.273,2.687c-.032.919-.008,1.839-.009,2.759v.348h-1.981v3.415H435.4v10.121h-.351q-5.076,0-10.153,0a4.027,4.027,0,0,1-3.246-1.638,4.176,4.176,0,0,1-.911-2.717c.013-5.529.038-11.058-.011-16.587a3.911,3.911,0,0,1,2.863-3.855,4.415,4.415,0,0,1,1.186-.182q8.607-.017,17.214-.007a3.679,3.679,0,0,1,3.729,3.736c0,5.752.026,11.5-.016,17.255a3.91,3.91,0,0,1-2.431,3.718,3.581,3.581,0,0,1-1.285.269C441.185-135.1,440.377-135.132,439.546-135.132Z" transform="translate(-420.728 160.121)" fill="#fff"/>
</svg>
