<svg xmlns="http://www.w3.org/2000/svg" width="31.354" height="31.354" viewBox="0 0 31.354 31.354">
  <g id="free_icon" data-name="free icon" transform="translate(0 15.677) rotate(-45)">
    <path id="Контур_53" data-name="Контур 53" d="M21.286,10.732l-9.56-9.56A3.634,3.634,0,0,0,9.234.109L1.972,0A1.933,1.933,0,0,0,0,1.972L.109,9.233a3.589,3.589,0,0,0,1.063,2.492l9.56,9.56a2.989,2.989,0,0,0,2.075.885,2.815,2.815,0,0,0,2.049-.823l6.492-6.492a2.808,2.808,0,0,0,.823-2.049A2.982,2.982,0,0,0,21.286,10.732ZM5.479,6.176,4.434,7.222a.484.484,0,0,1-.352.141.514.514,0,0,1-.356-.152A.5.5,0,0,1,3.716,6.5L5.109,5.11h0L6.5,3.716a.515.515,0,0,1,.707.011L8.647,5.162a.493.493,0,1,1-.7.7L6.873,4.782l-.7.7.718.718a.5.5,0,0,1,.011.707.484.484,0,0,1-.352.141A.514.514,0,0,1,6.2,6.895Zm2.911,5.5a.514.514,0,0,1-.356-.152.5.5,0,0,1-.011-.707l.7-.7a.5.5,0,0,0-.011-.708l-.36-.359L7.306,10.094a.508.508,0,0,1-.718-.718L7.969,8l.013-.014L8,7.969,9.376,6.588a.5.5,0,0,1,.707.011l.718.718a1.5,1.5,0,0,1,.032,2.122,1.442,1.442,0,0,1-.973.423,1.449,1.449,0,0,1-.421.971l-.7.7A.484.484,0,0,1,8.39,11.672ZM11.6,13.7a.5.5,0,0,1,.011.707.484.484,0,0,1-.352.141.514.514,0,0,1-.356-.152L9.471,12.956a.5.5,0,0,1-.011-.707L12.249,9.46a.485.485,0,0,1,.352-.141.515.515,0,0,1,.356.152l1.436,1.437a.493.493,0,1,1-.7.7l-1.077-1.078-.7.7.718.718a.5.5,0,0,1,.011.707.484.484,0,0,1-.352.141.514.514,0,0,1-.356-.152l-.718-.718-.7.7Zm5.67.792a.5.5,0,0,1-.707-.011L15.49,13.4l-.7.7.718.718a.5.5,0,0,1,.011.707.484.484,0,0,1-.352.141.514.514,0,0,1-.356-.152l-.718-.718-.7.7,1.077,1.078a.5.5,0,0,1,.011.707.484.484,0,0,1-.352.141.514.514,0,0,1-.356-.152l-1.436-1.437a.5.5,0,0,1-.011-.707l2.788-2.788a.5.5,0,0,1,.707.011l1.436,1.436A.5.5,0,0,1,17.275,14.487Z" transform="translate(0 0)" fill="#f2ffff"/>
    <path id="Контур_54" data-name="Контур 54" d="M.714,1.208h0a.483.483,0,0,0,.352-.141A.5.5,0,0,0,1.056.359L.7,0,0,.7l.359.359A.509.509,0,0,0,.714,1.208Z" transform="translate(9.049 7.655)" fill="#f2ffff"/>
  </g>
</svg>
