<svg xmlns="http://www.w3.org/2000/svg" width="26.287" height="26.287" viewBox="0 0 26.287 26.287">
  <path id="Контур_102" data-name="Контур 102" d="M13.144,0A13.144,13.144,0,1,0,26.287,13.144,13.144,13.144,0,0,0,13.144,0ZM4.7,15.462H3.26V10.825H4.7Zm4.934,0H5.72V10.825H9.56v.99h-2.4v.737h2.23V13.5H7.156v.914H9.63Zm4.44,0H10.4V10.825h1.433V14.32H14.07Zm4.352-3.492H16.961v3.492H15.528V11.97H14.067V10.825h4.355Zm3.669,3.376a2.784,2.784,0,0,1-1.117.195,2.3,2.3,0,0,1-1.638-.455,1.8,1.8,0,0,1-.516-1.158l1.363-.085a1.042,1.042,0,0,0,.18.506A.758.758,0,0,0,21,14.63a.7.7,0,0,0,.473-.144.431.431,0,0,0,.166-.334.426.426,0,0,0-.158-.323,1.83,1.83,0,0,0-.734-.269A3.121,3.121,0,0,1,19.4,13a1.132,1.132,0,0,1-.4-.9,1.216,1.216,0,0,1,.207-.675,1.375,1.375,0,0,1,.623-.5,2.9,2.9,0,0,1,1.14-.182,2.332,2.332,0,0,1,1.355.33,1.426,1.426,0,0,1,.555,1.052l-1.35.079a.631.631,0,0,0-.7-.6.574.574,0,0,0-.376.106.324.324,0,0,0-.126.258.258.258,0,0,0,.1.2,1.169,1.169,0,0,0,.481.171,6.016,6.016,0,0,1,1.346.41,1.415,1.415,0,0,1,.591.514,1.3,1.3,0,0,1,.185.686,1.472,1.472,0,0,1-.247.823A1.544,1.544,0,0,1,22.091,15.346Z" fill="#fff"/>
</svg>
