<svg id="instagram_icon" data-name="instagram icon" xmlns="http://www.w3.org/2000/svg" width="25" height="25" viewBox="0 0 25 25">
  <path id="Контур_98" data-name="Контур 98" d="M204.276-188.9c0,1.85.023,3.7-.006,5.55a6.757,6.757,0,0,1-2.3,5.057,6.747,6.747,0,0,1-2.892,1.555,6.547,6.547,0,0,1-1.655.22c-3.753,0-7.507.011-11.26,0a6.931,6.931,0,0,1-6.676-5.34,6.743,6.743,0,0,1-.185-1.536c0-3.752-.038-7.5.012-11.256a6.7,6.7,0,0,1,3.559-5.982,6.593,6.593,0,0,1,3.393-.876c3.736,0,7.472-.013,11.208.007a6.619,6.619,0,0,1,4.386,1.671,6.758,6.758,0,0,1,2.3,4.016,7.544,7.544,0,0,1,.112,1.293c.012,1.874.005,3.749.005,5.623Zm-12.489-7.053a6.931,6.931,0,0,0-6.937,6.933,6.946,6.946,0,0,0,6.854,6.947,6.948,6.948,0,0,0,7.021-6.937A6.934,6.934,0,0,0,191.787-195.958Zm9.716-1.392a1.4,1.4,0,0,0-1.391-1.39,1.393,1.393,0,0,0-1.387,1.384,1.4,1.4,0,0,0,1.386,1.4A1.4,1.4,0,0,0,201.5-197.349Z" transform="translate(-179.285 201.519)" fill="#fff"/>
  <path id="Контур_99" data-name="Контур 99" d="M248.226-137.631a4.992,4.992,0,0,1-4.983,4.991,4.991,4.991,0,0,1-4.99-4.983,4.985,4.985,0,0,1,4.982-4.989A4.985,4.985,0,0,1,248.226-137.631Z" transform="translate(-230.737 150.126)" fill="#fff"/>
</svg>
