<svg xmlns="http://www.w3.org/2000/svg" width="25" height="22.5" viewBox="0 0 25 22.5">
  <g id="little-kid_icon" data-name="little-kid icon" transform="translate(0 -0.5)">
    <circle id="Эллипс_1" data-name="Эллипс 1" cx="1.5" cy="1.5" r="1.5" transform="translate(6.81 12)" fill="#f2ffff"/>
    <path id="Контур_100" data-name="Контур 100" d="M23.209,10.963a27.253,27.253,0,0,0,.228-2.876C23.438,2.56,16.729.5,12.5.5A8.718,8.718,0,0,0,7.11,2.462C5.027,2.577,1.563,3.85,1.563,8.087a27.18,27.18,0,0,0,.226,2.877A2.744,2.744,0,0,0,0,13.5a2.794,2.794,0,0,0,2.645,2.729A10.419,10.419,0,0,0,12.5,23a10.418,10.418,0,0,0,9.855-6.771A2.794,2.794,0,0,0,25,13.5,2.744,2.744,0,0,0,23.209,10.963Zm-2.194,4.364s0,0,0,.005v0A8.835,8.835,0,0,1,12.5,21.5a8.777,8.777,0,0,1-8.741-7.151L4.8,10.858A6.748,6.748,0,0,0,8.717,8.083c1.4,1.271,4.541,2.831,11.527,2.914l1,3.347A8.182,8.182,0,0,1,21.016,15.327Z" fill="#f2ffff"/>
    <circle id="Эллипс_2" data-name="Эллипс 2" cx="1.5" cy="1.5" r="1.5" transform="translate(15.19 12)" fill="#f2ffff"/>
    <path id="Контур_101" data-name="Контур 101" d="M13.979,17.21a2.87,2.87,0,0,1-3.958,0,.751.751,0,0,0-1.042,1.081,4.389,4.389,0,0,0,6.042,0,.751.751,0,0,0-1.042-1.081Z" transform="translate(0.5)" fill="#f2ffff"/>
  </g>
</svg>
