<svg xmlns="http://www.w3.org/2000/svg" width="25.434" height="23.039" viewBox="0 0 25.434 23.039">
  <g id="Сгруппировать_20" data-name="Сгруппировать 20" transform="translate(1379.461 -313)">
    <path id="Контур_107" data-name="Контур 107" d="M-1353.638,319.686c-.591-5.222-4.919-6.686-7.862-6.686a6.681,6.681,0,0,0-4.042,1.344,6.887,6.887,0,0,0-.747.649,6.937,6.937,0,0,0-.747-.649,6.682,6.682,0,0,0-4.042-1.344c-2.944,0-7.271,1.465-7.862,6.686Z" transform="translate(-0.454)" fill="#fff"/>
    <g id="Контур_108" data-name="Контур 108" transform="translate(0 -56.415)" fill="#0030ca" stroke-miterlimit="10">
      <path d="M -1356.448364257813 383.7771911621094 L -1377.0390625 383.7771911621094 C -1378.173095703125 381.9712524414063 -1378.81103515625 380.0620422363281 -1378.939453125 378.091064453125 L -1354.548461914063 378.091064453125 C -1354.6767578125 380.06201171875 -1355.314453125 381.9712524414063 -1356.448364257813 383.7771911621094 Z" stroke="none"/>
      <path d="M -1356.72802734375 383.2771911621094 C -1355.827392578125 381.7766418457031 -1355.280517578125 380.2062377929688 -1355.095336914063 378.591064453125 L -1378.392578125 378.591064453125 C -1378.207275390625 380.2061157226563 -1377.660034179688 381.7767639160156 -1376.75927734375 383.2771911621094 L -1356.72802734375 383.2771911621094 M -1356.174926757813 384.2771911621094 L -1377.312377929688 384.2771911621094 C -1378.555419921875 382.376953125 -1379.408813476563 380.1480102539063 -1379.461181640625 377.591064453125 L -1354.02685546875 377.591064453125 C -1354.078979492188 380.1481323242188 -1354.93212890625 382.376953125 -1356.174926757813 384.2771911621094 Z" stroke="none" fill="#fff"/>
    </g>
    <g id="Контур_109" data-name="Контур 109" transform="translate(-22.432 -112.829)" fill="#c94141" stroke-linecap="round" stroke-linejoin="round" stroke-miterlimit="10">
      <path d="M -1344.312377929688 448.3681030273438 C -1344.343505859375 448.3681030273438 -1344.373901367188 448.3622741699219 -1344.40283203125 448.350830078125 C -1344.608154296875 448.2693481445313 -1349.1640625 446.4327697753906 -1352.671264648438 442.6819763183594 L -1335.95263671875 442.6819763183594 C -1339.458740234375 446.4320678710938 -1344.0166015625 448.2693176269531 -1344.221923828125 448.3507995605469 C -1344.2509765625 448.3623657226563 -1344.28125 448.3681030273438 -1344.312377929688 448.3681030273438 Z" stroke="none"/>
      <path d="M -1351.461791992188 443.1819763183594 C -1348.901611328125 445.5902099609375 -1345.852172851563 447.2208557128906 -1344.312377929688 447.8482666015625 C -1342.772094726563 447.2206420898438 -1339.721801757813 445.5898742675781 -1337.161987304688 443.1819763183594 L -1351.461791992188 443.1819763183594 M -1353.778076171875 442.1819763183594 L -1334.845947265625 442.1819763183594 C -1338.107055664063 446.1167297363281 -1342.814575195313 448.3303527832031 -1344.03759765625 448.8155517578125 C -1344.125610351563 448.8505859375 -1344.218994140625 448.8681030273438 -1344.312377929688 448.8681030273438 C -1344.405639648438 448.8681030273438 -1344.4990234375 448.8505859375 -1344.587280273438 448.8155517578125 C -1345.803588867188 448.3330078125 -1350.514404296875 446.1188659667969 -1353.778076171875 442.1819763183594 Z" stroke="none" fill="#fff"/>
    </g>
  </g>
</svg>
