<svg xmlns="http://www.w3.org/2000/svg" width="26" height="25" viewBox="0 0 26 25">
  <path id="Контур_96" data-name="Контур 96" d="M534.3-201.257h8.069a4.739,4.739,0,0,1,2.4.576,4.657,4.657,0,0,1,2.485,3.484,4.293,4.293,0,0,1,.04.61q0,7.829,0,15.657a4.518,4.518,0,0,1-2.077,3.821,4.7,4.7,0,0,1-2.794.849q-8.129,0-16.257,0a4.8,4.8,0,0,1-3.993-2.012,4.082,4.082,0,0,1-.855-2.37c-.008-.225-.019-.45-.019-.675q0-7.612,0-15.223a4.673,4.673,0,0,1,.2-1.383,4.537,4.537,0,0,1,1.183-1.906,4.844,4.844,0,0,1,1.87-1.171,5.232,5.232,0,0,1,1.694-.255Zm-1.406,14.8c.037.031.059.053.084.07q2.507,1.776,5.016,3.551a2.807,2.807,0,0,0,.424.257.642.642,0,0,0,.773-.081,1.222,1.222,0,0,0,.245-.484c.175-.723.328-1.451.488-2.177q.425-1.924.849-3.847c.273-1.233.55-2.465.82-3.7a2.846,2.846,0,0,0,.086-.628.627.627,0,0,0-.927-.59l-1.507.56q-1.9.7-3.806,1.407c-1.1.408-2.2.82-3.3,1.228-1.421.527-2.844,1.048-4.261,1.584a1.918,1.918,0,0,0-.539.335.293.293,0,0,0,.049.5,1.452,1.452,0,0,0,.357.162c1.052.32,2.106.633,3.157.954a.28.28,0,0,0,.255-.036c.7-.428,1.4-.852,2.107-1.277q2.521-1.529,5.043-3.057a5.431,5.431,0,0,1,.581-.3.2.2,0,0,1,.262.048c.056.1-.051.159-.116.216q-.708.615-1.42,1.227l-3.55,3.067Zm6.08-5.433-.036-.043a1.154,1.154,0,0,0-.186.08q-1.618,1.052-3.235,2.109-2.071,1.353-4.143,2.7a.139.139,0,0,0-.068.186c.143.5.274,1.009.415,1.513q.27.965.55,1.926c.051.175.181.239.388.207,0-.074-.005-.15-.012-.225-.04-.44-.081-.88-.121-1.32-.051-.563-.1-1.126-.155-1.688a.3.3,0,0,1,.127-.3q1.526-1.195,3.042-2.4,1.652-1.308,3.3-2.617A1.57,1.57,0,0,0,538.977-191.891Zm-6.118,5.773.06,2.868.05.034c.637-.513,1.2-1.1,1.816-1.653Z" transform="translate(-521.3 201.257)" fill="#fff"/>
</svg>
