<svg id="telephone" xmlns="http://www.w3.org/2000/svg" width="27.012" height="27.012" viewBox="0 0 27.012 27.012">
  <g id="Сгруппировать_21" data-name="Сгруппировать 21">
    <path id="Контур_110" data-name="Контур 110" d="M13.506,0A13.506,13.506,0,1,0,27.012,13.506,13.506,13.506,0,0,0,13.506,0Zm6.753,21.1A14.366,14.366,0,0,1,5.909,6.753a.844.844,0,0,1,.844-.844H9.869a.844.844,0,0,1,.844.844,9.309,9.309,0,0,0,.944,4.128.846.846,0,0,1-.392,1.131l-1.259.608A11.862,11.862,0,0,0,14.39,17L15,15.746a.846.846,0,0,1,1.131-.392,9.325,9.325,0,0,0,4.128.944.844.844,0,0,1,.844.844v3.116h0A.844.844,0,0,1,20.259,21.1Z" fill="#f2ffff"/>
  </g>
</svg>
