<svg xmlns="http://www.w3.org/2000/svg" width="25" height="25" viewBox="0 0 25 25">
  <path id="Контур_95" data-name="Контур 95" d="M1740.39-93.711c-2.1,0-4.192-.005-6.287,0a6.043,6.043,0,0,1-2.594-.553,6.321,6.321,0,0,1-1.969-1.423,6.228,6.228,0,0,1-1.056-1.524,6.456,6.456,0,0,1-.49-1.44,6.655,6.655,0,0,1-.139-1.486q0-6.216,0-12.433a6.245,6.245,0,0,1,.332-1.9,5.853,5.853,0,0,1,1.194-2.1,7.948,7.948,0,0,1,1.03-.933,5.242,5.242,0,0,1,.842-.539,6.583,6.583,0,0,1,1.429-.521,5.329,5.329,0,0,1,1.335-.152h12.728a5.982,5.982,0,0,1,2.076.4,6.35,6.35,0,0,1,1.3.663,5.049,5.049,0,0,1,.636.515,7.741,7.741,0,0,1,.633.643,5.115,5.115,0,0,1,.856,1.342c.094.222.2.441.275.669a4.815,4.815,0,0,1,.3,1.352c.017.589.039,1.179.039,1.768q.005,5.642,0,11.283a6.549,6.549,0,0,1-.341,2.168,6.206,6.206,0,0,1-.875,1.665A6.2,6.2,0,0,1,1750.3-94.9a6.263,6.263,0,0,1-1.911.956,5.6,5.6,0,0,1-1.615.237q-3.19-.007-6.379,0Zm3.232-15.885c.177.1.319.18.452.269a6.112,6.112,0,0,0,1.3.629,7.016,7.016,0,0,0,2.411.443c.22,0,.229-.007.226-.217-.013-.936-.03-1.872-.04-2.808,0-.126-.05-.163-.17-.172a3.943,3.943,0,0,1-2.3-.791c-.184-.151-.386-.283-.554-.449a4.423,4.423,0,0,1-1.086-1.709c-.088-.255-.194-.505-.263-.765a2.307,2.307,0,0,1-.055-.54c0-.12-.03-.165-.163-.164-.925.006-1.85,0-2.776,0-.216,0-.217,0-.217.216q0,2.034-.009,4.068,0,4.076,0,8.152a2.727,2.727,0,0,1-.513,1.748,3.459,3.459,0,0,1-.674.666,2.331,2.331,0,0,1-1.221.44,2.257,2.257,0,0,1-1.471-.293,3.308,3.308,0,0,1-1-.938,2.337,2.337,0,0,1-.409-1.121,2.84,2.84,0,0,1,.129-1.176,2.337,2.337,0,0,1,.642-.972,3.251,3.251,0,0,1,1.567-.736,1.912,1.912,0,0,1,.953.037c.114.036.164,0,.162-.117q-.025-1.5-.048-3c0-.01,0-.024,0-.03-.033-.037-.061-.087-.1-.106a.541.541,0,0,0-.179-.035,5.735,5.735,0,0,0-2.15.223,5.8,5.8,0,0,0-2.02,1.064,5.883,5.883,0,0,0-1.422,1.689,5.527,5.527,0,0,0-.71,2.2,5.773,5.773,0,0,0,.249,2.478,6.031,6.031,0,0,0,1.045,1.9,8.921,8.921,0,0,0,1.208,1.14,4.388,4.388,0,0,0,1.475.743,5.7,5.7,0,0,0,1.438.284,5.957,5.957,0,0,0,2.272-.239,5.648,5.648,0,0,0,1.43-.706,5.941,5.941,0,0,0,1.233-1.158,6.232,6.232,0,0,0,.964-1.686,6.057,6.057,0,0,0,.424-2.225q-.008-3-.023-6C1743.622-109.434,1743.622-109.5,1743.622-109.6Z" transform="translate(-1727.854 118.708)" fill="#fff"/>
</svg>
