<svg id="Сгруппировать_9" data-name="Сгруппировать 9" xmlns="http://www.w3.org/2000/svg" width="78.78" height="91.814" viewBox="0 0 78.78 91.814">
  <g id="Сгруппировать_8" data-name="Сгруппировать 8">
    <path id="Контур_42" data-name="Контур 42" d="M289.9,1235.355c-3.432-3.561-7.769-5.587-12.359-7.134-7.7-2.591-15.659-3.533-25.142-3.526a72.936,72.936,0,0,0-18.351,2.318c-5.646,1.461-11.081,3.444-15.5,7.446-2.517,2.279-4.457,4.893-4.158,8.579.132,1.628.214,3.265.292,4.9q.619,13.232,1.227,26.459c.362,7.9.69,15.8,1.095,23.7.089,1.8.67,3.413,2.552,4.2q16.58,6.966,33.145,13.976a2.558,2.558,0,0,0,2.213-.043q16.324-6.914,32.677-13.769a4.388,4.388,0,0,0,2.821-3.682,20.738,20.738,0,0,0,.2-2.139q.631-13.332,1.242-26.662c.409-8.755.729-17.509,1.259-26.256A10.542,10.542,0,0,0,289.9,1235.355Zm.378,10.543c-.491,8.038-.787,16.088-1.157,24.129q-.573,12.256-1.145,24.507a19.566,19.566,0,0,1-.184,1.968,4.03,4.03,0,0,1-2.595,3.382q-15.037,6.282-30.036,12.655a2.344,2.344,0,0,1-2.03.039q-15.219-6.458-30.469-12.841a3.975,3.975,0,0,1-2.345-3.865c-.37-7.259-.67-14.521-1.005-21.783q-.555-12.156-1.126-24.316c-.07-1.5-.144-3-.269-4.5-.277-3.386,1.508-5.789,3.818-7.882,4.064-3.682,9.059-5.5,14.248-6.846a67.082,67.082,0,0,1,16.867-2.131c8.716-.008,16.029.857,23.108,3.241,4.216,1.422,8.2,3.284,11.357,6.553A9.7,9.7,0,0,1,290.274,1245.9Z" transform="translate(-214.357 -1224.693)" fill="#fff"/>
    <path id="Контур_43" data-name="Контур 43" d="M315.835,1281.116c-1.27-.331-2.4-.627-3.733-.978,1.22-1.052,2.291-1.975,3.55-3.058C315.714,1278.522,315.772,1279.761,315.835,1281.116Z" transform="translate(-265.871 -1252.302)" fill="#fff"/>
    <path id="Контур_44" data-name="Контур 44" d="M280.616,1280.1c-1.309.35-2.412.643-3.581.954v-4.036C278.29,1278.105,279.377,1279.036,280.616,1280.1Z" transform="translate(-247.39 -1252.271)" fill="#fff"/>
    <path id="Контур_45" data-name="Контур 45" d="M338.409,1282.648v3.791l-3.522-.783C336.146,1284.581,337.225,1283.661,338.409,1282.648Z" transform="translate(-277.879 -1255.236)" fill="#fff"/>
    <path id="Контур_46" data-name="Контур 46" d="M257.9,1285.663c-1.27.292-2.326.538-3.495.811V1282.7C255.568,1283.684,256.636,1284.587,257.9,1285.663Z" transform="translate(-235.464 -1255.263)" fill="#fff"/>
    <path id="Контур_47" data-name="Контур 47" d="M322.655,1360.27" transform="translate(-271.432 -1296.144)" fill="#ed0d3e"/>
    <path id="Контур_48" data-name="Контур 48" d="M282.843,1296.893v34.123c-1.22-.289-2.338-.518-3.429-.838-.23-.066-.4-.452-.53-.72q-3.547-7.258-7.079-14.521a2.7,2.7,0,0,0-.635-.915v8.875c-3.086-4.091-3.573-13.185.355-18.71,2.061,2.961,4.106,5.891,6.148,8.825.07-.019.141-.043.214-.066,0-.362,0-.724,0-1.087.012-4.2.043-8.4.028-12.6,0-.713.2-1.122.888-1.3C280.1,1297.629,281.39,1297.279,282.843,1296.893Z" transform="translate(-243.006 -1262.744)" fill="#fff"/>
    <path id="Контур_49" data-name="Контур 49" d="M310.609,1330.483a0,0,0,0,1,0,0s-.012.008-.016.012a6.831,6.831,0,0,1-3.639,1.04c-.167,0-.284-.008-.335-.008a11.725,11.725,0,0,1-2.56-.534c-.663-.175-1.3-.468-1.956-.67-.76-.238-1.371-.137-1.562.794-.031.152-.183.281-.281.421-.062-.012-.125-.028-.187-.04v-7.991l.269-.07a9.475,9.475,0,0,1,.331,1.106c.394,2.159,1.236,3.994,3.316,5.054,1.925.974,4.434.8,5.638-.456a4.127,4.127,0,0,0-.448-6.218c-1.169-.982-2.525-1.73-3.764-2.63a30.82,30.82,0,0,1-3.857-2.964,6.31,6.31,0,0,1,2.5-10.442,6.673,6.673,0,0,1,8.007,4.2,8.307,8.307,0,0,1-.335,3.861c-.14-.616-.269-1.1-.366-1.6-.487-2.474-1.695-4.375-4.231-5.143a3.688,3.688,0,0,0-4.57,1.792,3.41,3.41,0,0,0,1.119,4.578c2.022,1.527,4.153,2.9,6.249,4.325q.251.169.514.374a7.482,7.482,0,0,1,2.918,4.559A6.835,6.835,0,0,1,310.609,1330.483Z" transform="translate(-259.349 -1267.886)" fill="#fff"/>
  </g>
  <path id="Контур_50" data-name="Контур 50" d="M295.335,1276.658a21.619,21.619,0,0,0-2.572-.612v5.494c-1.9-.475-3.647-.911-5.451-1.359,0-1.594.019-3.129-.016-4.656,0-.3-.16-.8-.347-.85-1.578-.463-3.179-.846-4.866-1.274v5.657c-1.831-.506-3.581-.974-5.31-1.5-.184-.055-.355-.464-.367-.713-.062-1.285-.1-2.571-.078-3.853.011-.624-.261-.83-.8-1.06a9.84,9.84,0,0,0-8.653-.023,1.024,1.024,0,0,1-.273.066c-.557.09-.756.406-.744.978.035,1.285.023,2.572-.027,3.853a.979.979,0,0,1-.432.756c-1.73.534-3.484,1-5.338,1.516v-5.661c-1.352.339-2.583.729-3.842.947-1.024.176-1.391.616-1.313,1.672.1,1.363.023,2.743.023,4.141l-5.509,1.36v-5.5a18.751,18.751,0,0,1-1.979.425c-.834.09-1.064.5-1.021,1.3.171,3.191.292,6.386.428,9.577q.549,12.675,1.079,25.352a1.8,1.8,0,0,0,.986,1.714q10.771,6.329,21.5,12.736a1.158,1.158,0,0,0,1.36.012c7.263-4.329,14.54-8.63,21.795-12.974a1.59,1.59,0,0,0,.663-1.083c.179-3.1.284-6.2.421-9.3q.356-8.31.72-16.617c.14-3.195.288-6.386.39-9.58C295.772,1277.281,295.569,1276.744,295.335,1276.658Zm-15.67,40.941a15.857,15.857,0,0,1-19.808-2.061,21.263,21.263,0,0,1-.089-30.211,16.082,16.082,0,0,1,22.816.132c4.118,4.13,5.977,9.156,6.113,15.3C288.447,1307.563,285.848,1313.57,279.665,1317.6Z" transform="translate(-231.256 -1249.053)" fill="#fff"/>
  <path id="Контур_51" data-name="Контур 51" d="M288.236,1249.638v4.3c-1.021-1.169-2.135-.736-3.265-.564-2.089.312-3.99-1.71-4.056-3.9,1.305,1.453,2.638,1.6,4.068.712A3.8,3.8,0,0,1,288.236,1249.638Z" transform="translate(-249.434 -1237.754)" fill="#fff"/>
  <path id="Контур_52" data-name="Контур 52" d="M298.369,1258.5c0,.156-.269.308-.413.464-.105-.156-.3-.312-.3-.472-.019-2.926-.016-5.856-.016-8.785.1-.047.2-.1.3-.148.152.2.429.4.429.6C298.4,1252.938,298.392,1255.72,298.369,1258.5Z" transform="translate(-258.247 -1237.796)" fill="#fff"/>
</svg>
