<svg xmlns="http://www.w3.org/2000/svg" width="170" height="39" viewBox="0 0 170 39">
  <g id="Logo" transform="translate(1270.119 -678.343)">
    <g id="Сгруппировать_2" data-name="Сгруппировать 2" transform="translate(-1228.738 693.619)">
      <g id="Сгруппировать_1" data-name="Сгруппировать 1">
        <path id="Контур_1" data-name="Контур 1" d="M-1012.3,772.228l3.865,4.859v-3.369a1.6,1.6,0,0,0-.2-.953,1.119,1.119,0,0,0-.93-.323v-.214h2.588v.214a1.976,1.976,0,0,0-.667.165.663.663,0,0,0-.266.329,2.25,2.25,0,0,0-.1.783v6.523h-.2l-5.3-6.523v4.98a1.1,1.1,0,0,0,.309.913,1.132,1.132,0,0,0,.708.237h.185v.214h-2.779v-.214a1.258,1.258,0,0,0,.9-.266,1.244,1.244,0,0,0,.254-.884V773.17l-.167-.208a1.528,1.528,0,0,0-.439-.41,1.324,1.324,0,0,0-.549-.11v-.214Z" transform="translate(1015.08 -772.049)" fill="#fff"/>
        <path id="Контур_2" data-name="Контур 2" d="M-961.15,772.679v3.189h.156a1.237,1.237,0,0,0,1.08-.468,2.88,2.88,0,0,0,.428-1.381h.22v4.1h-.22a3.077,3.077,0,0,0-.292-1.1,1.258,1.258,0,0,0-.517-.575,1.961,1.961,0,0,0-.855-.147v2.207a3.187,3.187,0,0,0,.055.792.474.474,0,0,0,.205.237.962.962,0,0,0,.485.093h.468a2.812,2.812,0,0,0,1.759-.508,2.832,2.832,0,0,0,.951-1.548h.214l-.352,2.49h-6.772v-.214h.26a1.08,1.08,0,0,0,.549-.121.525.525,0,0,0,.231-.277,2.381,2.381,0,0,0,.064-.728v-5.154a4.113,4.113,0,0,0-.029-.653.553.553,0,0,0-.214-.312.994.994,0,0,0-.6-.162h-.26v-.214h6.558v2.317h-.219a2.826,2.826,0,0,0-.471-1.219,1.75,1.75,0,0,0-.858-.543,4.658,4.658,0,0,0-1.213-.1Z" transform="translate(972.752 -772.049)" fill="#fff"/>
        <path id="Контур_3" data-name="Контур 3" d="M-906.625,772.228v.214a.74.74,0,0,0-.37.121.892.892,0,0,0-.266.318q-.035.069-.364.9l-2.456,6.465h-.225l-1.941-5.05-2.138,5.05h-.214l-2.577-6.4a6.846,6.846,0,0,0-.549-1.167.714.714,0,0,0-.526-.237v-.214h3.4v.214a.959.959,0,0,0-.546.124.35.35,0,0,0-.136.28,3.419,3.419,0,0,0,.283.93l1.537,3.8,1.231-2.97-.324-.832a6.212,6.212,0,0,0-.41-.91.9.9,0,0,0-.332-.327,1.227,1.227,0,0,0-.552-.1v-.214h3.8v.214a2.108,2.108,0,0,0-.572.064.375.375,0,0,0-.191.136.359.359,0,0,0-.069.217,3.966,3.966,0,0,0,.26.815l1.427,3.709,1.277-3.357a7.009,7.009,0,0,0,.249-.711,1.514,1.514,0,0,0,.046-.352.461.461,0,0,0-.162-.373,1.051,1.051,0,0,0-.618-.147v-.214Z" transform="translate(934.624 -772.049)" fill="#fff"/>
        <path id="Контур_4" data-name="Контур 4" d="M-838.694,771.168v2.716h-.225a2.893,2.893,0,0,0-.948-1.629,2.417,2.417,0,0,0-1.571-.566,2.324,2.324,0,0,0-1.346.422,2.46,2.46,0,0,0-.9,1.1,4.994,4.994,0,0,0-.364,1.941,6.49,6.49,0,0,0,.266,1.915,2.548,2.548,0,0,0,.832,1.306,2.316,2.316,0,0,0,1.468.442,2.866,2.866,0,0,0,1.355-.323,4.681,4.681,0,0,0,1.3-1.115v.676a4.278,4.278,0,0,1-1.372,1,4.164,4.164,0,0,1-1.667.309,4.787,4.787,0,0,1-2.227-.5,3.554,3.554,0,0,1-1.5-1.444,4.031,4.031,0,0,1-.529-2,4.156,4.156,0,0,1,.586-2.126,4.134,4.134,0,0,1,1.583-1.56,4.29,4.29,0,0,1,2.118-.555,4.807,4.807,0,0,1,1.745.358,2.687,2.687,0,0,0,.676.208.439.439,0,0,0,.321-.136.738.738,0,0,0,.176-.431Z" transform="translate(874.695 -771.168)" fill="#fff"/>
        <path id="Контур_5" data-name="Контур 5" d="M-792.981,777.037h-2.768l-.329.763a1.7,1.7,0,0,0-.162.63.524.524,0,0,0,.266.485,2.242,2.242,0,0,0,.768.139v.214h-2.606v-.214a1.167,1.167,0,0,0,.693-.35,4.643,4.643,0,0,0,.67-1.182l2.8-6.251h.11l2.825,6.425a3.909,3.909,0,0,0,.664,1.15.907.907,0,0,0,.555.208v.214h-3.79v-.214h.156a1.188,1.188,0,0,0,.641-.127.309.309,0,0,0,.127-.266.706.706,0,0,0-.035-.214q-.012-.052-.173-.433Zm-.2-.428-1.167-2.7-1.2,2.7Z" transform="translate(834.552 -771.254)" fill="#fff"/>
        <path id="Контур_6" data-name="Контур 6" d="M-739.257,771.168l.064,2.612h-.237a2.674,2.674,0,0,0-.823-1.58,2.07,2.07,0,0,0-1.418-.6,1.329,1.329,0,0,0-.933.315.959.959,0,0,0-.344.725.882.882,0,0,0,.121.462,1.963,1.963,0,0,0,.537.537,12.14,12.14,0,0,0,1.254.676,5.577,5.577,0,0,1,1.855,1.277,2.161,2.161,0,0,1,.474,1.375,2.224,2.224,0,0,1-.766,1.69,2.753,2.753,0,0,1-1.944.708,3.14,3.14,0,0,1-.7-.075,5.27,5.27,0,0,1-.826-.283,1.251,1.251,0,0,0-.457-.116.566.566,0,0,0-.318.116.807.807,0,0,0-.272.352h-.214V776.4h.214a3.392,3.392,0,0,0,.979,1.9,2.292,2.292,0,0,0,1.563.656,1.466,1.466,0,0,0,1.031-.352,1.083,1.083,0,0,0,.384-.821,1.075,1.075,0,0,0-.147-.537,1.705,1.705,0,0,0-.448-.494,6.752,6.752,0,0,0-1.063-.61,9.179,9.179,0,0,1-1.537-.9,2.745,2.745,0,0,1-.719-.826,2.05,2.05,0,0,1-.251-1.005,2.127,2.127,0,0,1,.688-1.595,2.4,2.4,0,0,1,1.733-.659,2.955,2.955,0,0,1,.74.093,3.7,3.7,0,0,1,.662.257,1.556,1.556,0,0,0,.546.188.309.309,0,0,0,.237-.093,1.064,1.064,0,0,0,.162-.445Z" transform="translate(790.009 -771.168)" fill="#fff"/>
        <path id="Контур_7" data-name="Контур 7" d="M-699.343,772.228v2.12h-.208a3.353,3.353,0,0,0-.41-1.055,1.581,1.581,0,0,0-.618-.511,1.984,1.984,0,0,0-.768-.1h-.584v6.043a2.469,2.469,0,0,0,.066.751.594.594,0,0,0,.26.263,1.052,1.052,0,0,0,.529.113h.26v.214h-4.1v-.214h.26a1.082,1.082,0,0,0,.549-.121.552.552,0,0,0,.237-.277,2.388,2.388,0,0,0,.064-.728v-6.043h-.566a1.647,1.647,0,0,0-1.15.335,2.217,2.217,0,0,0-.636,1.335h-.219v-2.12Z" transform="translate(758.582 -772.049)" fill="#fff"/>
        <path id="Контур_8" data-name="Контур 8" d="M-653.687,777.312l-.295,2.75h-6.957v-.214h.26a1.082,1.082,0,0,0,.549-.121.525.525,0,0,0,.231-.277,2.381,2.381,0,0,0,.064-.728v-5.154a2.574,2.574,0,0,0-.064-.751.578.578,0,0,0-.257-.263,1.04,1.04,0,0,0-.523-.113h-.26v-.214h4.177v.214h-.341a1.083,1.083,0,0,0-.549.121.552.552,0,0,0-.237.277,2.377,2.377,0,0,0-.064.728v4.992a2.53,2.53,0,0,0,.069.765.459.459,0,0,0,.272.246,2.746,2.746,0,0,0,.7.052h.653a2.213,2.213,0,0,0,1.04-.219,1.938,1.938,0,0,0,.719-.693,5.626,5.626,0,0,0,.575-1.4Z" transform="translate(720.825 -772.049)" fill="#fff"/>
        <path id="Контур_9" data-name="Контур 9" d="M-611.176,772.679v3.189h.156a1.237,1.237,0,0,0,1.08-.468,2.88,2.88,0,0,0,.428-1.381h.219v4.1h-.219a3.077,3.077,0,0,0-.292-1.1,1.258,1.258,0,0,0-.517-.575,1.963,1.963,0,0,0-.855-.147v2.207a3.191,3.191,0,0,0,.055.792.474.474,0,0,0,.205.237.962.962,0,0,0,.485.093h.468a2.813,2.813,0,0,0,1.759-.508,2.832,2.832,0,0,0,.95-1.548h.214l-.352,2.49h-6.772v-.214h.26a1.082,1.082,0,0,0,.549-.121.526.526,0,0,0,.231-.277,2.378,2.378,0,0,0,.064-.728v-5.154a4.1,4.1,0,0,0-.029-.653.553.553,0,0,0-.214-.312.994.994,0,0,0-.6-.162h-.26v-.214h6.558v2.317h-.22a2.825,2.825,0,0,0-.471-1.219,1.75,1.75,0,0,0-.858-.543,4.657,4.657,0,0,0-1.213-.1Z" transform="translate(681.959 -772.049)" fill="#fff"/>
        <path id="Контур_10" data-name="Контур 10" d="M-542.83,771.168l.064,2.612H-543a2.674,2.674,0,0,0-.823-1.58,2.07,2.07,0,0,0-1.419-.6,1.329,1.329,0,0,0-.933.315.959.959,0,0,0-.344.725.881.881,0,0,0,.121.462,1.966,1.966,0,0,0,.537.537,12.1,12.1,0,0,0,1.254.676,5.579,5.579,0,0,1,1.855,1.277,2.161,2.161,0,0,1,.474,1.375,2.224,2.224,0,0,1-.766,1.69,2.753,2.753,0,0,1-1.944.708,3.138,3.138,0,0,1-.7-.075,5.265,5.265,0,0,1-.826-.283,1.25,1.25,0,0,0-.456-.116.566.566,0,0,0-.318.116.808.808,0,0,0-.272.352h-.214V776.4h.214a3.393,3.393,0,0,0,.979,1.9,2.292,2.292,0,0,0,1.563.656,1.467,1.467,0,0,0,1.031-.352,1.083,1.083,0,0,0,.384-.821,1.074,1.074,0,0,0-.147-.537,1.7,1.7,0,0,0-.448-.494,6.761,6.761,0,0,0-1.063-.61,9.177,9.177,0,0,1-1.537-.9,2.742,2.742,0,0,1-.719-.826,2.049,2.049,0,0,1-.251-1.005,2.127,2.127,0,0,1,.688-1.595,2.406,2.406,0,0,1,1.733-.659,2.954,2.954,0,0,1,.74.093,3.7,3.7,0,0,1,.661.257,1.557,1.557,0,0,0,.546.188.309.309,0,0,0,.237-.093,1.063,1.063,0,0,0,.162-.445Z" transform="translate(626.799 -771.168)" fill="#fff"/>
        <path id="Контур_11" data-name="Контур 11" d="M-502.283,771.168v2.716h-.225a2.892,2.892,0,0,0-.947-1.629,2.418,2.418,0,0,0-1.572-.566,2.323,2.323,0,0,0-1.346.422,2.46,2.46,0,0,0-.9,1.1,4.994,4.994,0,0,0-.364,1.941,6.491,6.491,0,0,0,.266,1.915,2.547,2.547,0,0,0,.832,1.306,2.316,2.316,0,0,0,1.467.442,2.866,2.866,0,0,0,1.355-.323,4.68,4.68,0,0,0,1.3-1.115v.676a4.278,4.278,0,0,1-1.372,1,4.164,4.164,0,0,1-1.667.309,4.787,4.787,0,0,1-2.227-.5,3.554,3.554,0,0,1-1.5-1.444,4.032,4.032,0,0,1-.529-2,4.155,4.155,0,0,1,.586-2.126,4.133,4.133,0,0,1,1.583-1.56,4.29,4.29,0,0,1,2.118-.555,4.807,4.807,0,0,1,1.745.358,2.685,2.685,0,0,0,.676.208.439.439,0,0,0,.321-.136.738.738,0,0,0,.176-.431Z" transform="translate(595.172 -771.168)" fill="#fff"/>
        <path id="Контур_12" data-name="Контур 12" d="M-457.492,776.3v2.427a2.464,2.464,0,0,0,.066.751.594.594,0,0,0,.26.263,1.039,1.039,0,0,0,.523.113h.26v.214h-4.1v-.214h.26a1.082,1.082,0,0,0,.549-.121.526.526,0,0,0,.231-.277,2.38,2.38,0,0,0,.064-.728v-5.154a2.573,2.573,0,0,0-.064-.751.579.579,0,0,0-.257-.263,1.04,1.04,0,0,0-.523-.113h-.26v-.214h4.1v.214h-.26a1.083,1.083,0,0,0-.549.121.552.552,0,0,0-.237.277,2.379,2.379,0,0,0-.064.728v2.219h2.768v-2.219a2.579,2.579,0,0,0-.064-.751.578.578,0,0,0-.26-.263,1.057,1.057,0,0,0-.526-.113h-.254v-.214h4.091v.214h-.254a1.063,1.063,0,0,0-.549.121.553.553,0,0,0-.237.277,2.378,2.378,0,0,0-.064.728v5.154a2.574,2.574,0,0,0,.064.751.575.575,0,0,0,.26.263,1.055,1.055,0,0,0,.526.113h.254v.214h-4.091v-.214h.254a1.062,1.062,0,0,0,.549-.121.552.552,0,0,0,.237-.277,2.385,2.385,0,0,0,.064-.728V776.3Z" transform="translate(554.264 -772.049)" fill="#fff"/>
        <path id="Контур_13" data-name="Контур 13" d="M-400.678,771.559a3.913,3.913,0,0,1,3.042,1.092,3.928,3.928,0,0,1,1.17,2.906,4.178,4.178,0,0,1-.873,2.623,3.878,3.878,0,0,1-3.264,1.5,3.961,3.961,0,0,1-3.27-1.433,4.149,4.149,0,0,1-.913-2.687,3.907,3.907,0,0,1,1.187-2.909A3.78,3.78,0,0,1-400.678,771.559Zm.069.37a1.765,1.765,0,0,0-1.635,1.1,5.866,5.866,0,0,0-.457,2.588,5.023,5.023,0,0,0,.7,2.964,1.607,1.607,0,0,0,1.375.67,1.65,1.65,0,0,0,.994-.289,2.372,2.372,0,0,0,.792-1.182,6.566,6.566,0,0,0,.283-2.118,7.038,7.038,0,0,0-.289-2.326,2.266,2.266,0,0,0-.737-1.089A1.738,1.738,0,0,0-400.609,771.929Z" transform="translate(507.989 -771.49)" fill="#fff"/>
        <path id="Контур_14" data-name="Контур 14" d="M-346.25,771.559a3.913,3.913,0,0,1,3.042,1.092,3.928,3.928,0,0,1,1.17,2.906,4.177,4.177,0,0,1-.872,2.623,3.879,3.879,0,0,1-3.265,1.5,3.961,3.961,0,0,1-3.27-1.433,4.148,4.148,0,0,1-.913-2.687,3.907,3.907,0,0,1,1.187-2.909A3.78,3.78,0,0,1-346.25,771.559Zm.069.37a1.765,1.765,0,0,0-1.635,1.1,5.866,5.866,0,0,0-.456,2.588,5.024,5.024,0,0,0,.7,2.964,1.607,1.607,0,0,0,1.375.67,1.649,1.649,0,0,0,.994-.289,2.372,2.372,0,0,0,.792-1.182,6.566,6.566,0,0,0,.283-2.118,7.038,7.038,0,0,0-.289-2.326,2.265,2.265,0,0,0-.737-1.089A1.738,1.738,0,0,0-346.181,771.929Z" transform="translate(462.765 -771.49)" fill="#fff"/>
        <path id="Контур_15" data-name="Контур 15" d="M-290.114,777.312l-.295,2.75h-6.956v-.214h.26a1.08,1.08,0,0,0,.549-.121.525.525,0,0,0,.231-.277,2.38,2.38,0,0,0,.064-.728v-5.154a2.573,2.573,0,0,0-.064-.751.578.578,0,0,0-.257-.263,1.04,1.04,0,0,0-.523-.113h-.26v-.214h4.177v.214h-.341a1.082,1.082,0,0,0-.549.121.553.553,0,0,0-.237.277,2.387,2.387,0,0,0-.063.728v4.992a2.537,2.537,0,0,0,.069.765.46.46,0,0,0,.272.246,2.75,2.75,0,0,0,.7.052h.653a2.213,2.213,0,0,0,1.04-.219,1.936,1.936,0,0,0,.719-.693,5.616,5.616,0,0,0,.575-1.4Z" transform="translate(418.733 -772.049)" fill="#fff"/>
      </g>
    </g>
    <g id="Сгруппировать_4" data-name="Сгруппировать 4" transform="translate(-1270.119 678.343)">
      <g id="Сгруппировать_3" data-name="Сгруппировать 3" transform="translate(0 0)">
        <path id="Контур_16" data-name="Контур 16" d="M-1237.333,682.873a12.94,12.94,0,0,0-5.364-3.03,33.893,33.893,0,0,0-10.912-1.5,32.318,32.318,0,0,0-7.965.985,15.534,15.534,0,0,0-6.727,3.163,4.306,4.306,0,0,0-1.8,3.644c.057.692.093,1.387.127,2.08q.269,5.621.533,11.239c.157,3.356.3,6.713.475,10.067a1.827,1.827,0,0,0,1.108,1.786q7.2,2.959,14.386,5.936a1.132,1.132,0,0,0,.96-.018q7.085-2.937,14.183-5.849a1.87,1.87,0,0,0,1.224-1.564,8.611,8.611,0,0,0,.088-.909q.274-5.663.539-11.325c.178-3.719.316-7.437.546-11.153A4.427,4.427,0,0,0-1237.333,682.873Zm.164,4.478c-.213,3.414-.342,6.833-.5,10.249q-.248,5.206-.5,10.41a8.14,8.14,0,0,1-.079.836,1.718,1.718,0,0,1-1.126,1.437q-6.526,2.669-13.036,5.375a1.037,1.037,0,0,1-.881.017q-6.605-2.743-13.224-5.455a1.684,1.684,0,0,1-1.018-1.642c-.161-3.083-.291-6.168-.436-9.253q-.241-5.164-.489-10.329c-.031-.639-.063-1.276-.117-1.913a3.956,3.956,0,0,1,1.657-3.348,14.274,14.274,0,0,1,6.184-2.908,29.716,29.716,0,0,1,7.32-.905,31.116,31.116,0,0,1,10.03,1.377,11.919,11.919,0,0,1,4.929,2.784A4.073,4.073,0,0,1-1237.169,687.351Z" transform="translate(1270.119 -678.343)" fill="#fff"/>
        <path id="Контур_17" data-name="Контур 17" d="M-1149.84,743.692l-1.62-.424,1.541-1.327C-1149.892,742.566-1149.867,743.1-1149.84,743.692Z" transform="translate(1171.526 -731.425)" fill="#fff"/>
        <path id="Контур_18" data-name="Контур 18" d="M-1192.476,743.208l-1.554.414V741.87C-1193.485,742.34-1193.014,742.744-1192.476,743.208Z" transform="translate(1206.897 -731.367)" fill="#fff"/>
        <path id="Контур_19" data-name="Контур 19" d="M-1122.271,748.7v1.645l-1.529-.34Z" transform="translate(1148.543 -737.067)" fill="#fff"/>
        <path id="Контур_20" data-name="Контур 20" d="M-1219.983,750.047c-.551.127-1.01.233-1.517.352V748.76Z" transform="translate(1229.722 -737.117)" fill="#fff"/>
        <path id="Контур_21" data-name="Контур 21" d="M-1138.65,842.929" transform="translate(1160.882 -815.69)" fill="#ed0d3e"/>
        <path id="Контур_22" data-name="Контур 22" d="M-1198,765.992V780.8c-.529-.125-1.015-.225-1.488-.364-.1-.029-.172-.2-.23-.313q-1.54-3.15-3.073-6.3a1.173,1.173,0,0,0-.276-.4v3.852c-1.339-1.776-1.551-5.722.154-8.12.895,1.285,1.782,2.557,2.668,3.83l.093-.029c0-.157,0-.315,0-.472.005-1.823.019-3.646.012-5.469,0-.309.086-.487.385-.563C-1199.188,766.312-1198.628,766.159-1198,765.992Z" transform="translate(1215.288 -751.673)" fill="#fff"/>
        <path id="Контур_23" data-name="Контур 23" d="M-1161.759,788.181a0,0,0,0,1,0,0l-.007.005a2.965,2.965,0,0,1-1.579.451c-.073,0-.123,0-.145,0a5.1,5.1,0,0,1-1.111-.232c-.287-.076-.563-.2-.849-.291-.33-.1-.6-.059-.678.345-.014.066-.079.122-.122.183l-.081-.017v-3.468l.117-.03a4.114,4.114,0,0,1,.144.48,2.789,2.789,0,0,0,1.439,2.193,2.207,2.207,0,0,0,2.447-.2,1.791,1.791,0,0,0-.194-2.7c-.507-.426-1.1-.751-1.634-1.141a13.352,13.352,0,0,1-1.674-1.287,2.738,2.738,0,0,1,1.086-4.532,2.9,2.9,0,0,1,3.475,1.823,3.605,3.605,0,0,1-.145,1.676c-.061-.267-.117-.479-.159-.693a2.623,2.623,0,0,0-1.837-2.232,1.6,1.6,0,0,0-1.984.778,1.48,1.48,0,0,0,.485,1.987c.878.663,1.8,1.26,2.712,1.877q.109.074.223.162a3.246,3.246,0,0,1,1.267,1.979A2.966,2.966,0,0,1-1161.759,788.181Z" transform="translate(1184.008 -761.504)" fill="#fff"/>
      </g>
    </g>
    <path id="Контур_24" data-name="Контур 24" d="M-1209.965,736.949a9.378,9.378,0,0,0-1.116-.265v2.384l-2.366-.59c0-.692.008-1.358-.007-2.021,0-.13-.069-.345-.151-.369-.685-.2-1.38-.367-2.112-.553v2.455c-.795-.22-1.554-.423-2.3-.651-.079-.024-.154-.2-.159-.31-.027-.558-.044-1.116-.034-1.672.005-.271-.113-.36-.345-.46a4.271,4.271,0,0,0-3.756-.01.451.451,0,0,1-.118.029c-.242.039-.328.176-.323.424.015.558.01,1.116-.012,1.672a.425.425,0,0,1-.188.328c-.751.232-1.512.433-2.317.658v-2.457c-.587.147-1.121.316-1.667.411-.445.076-.6.267-.57.725.044.592.01,1.19.01,1.8l-2.391.59v-2.388a8.078,8.078,0,0,1-.859.184c-.362.039-.462.218-.443.566.074,1.385.127,2.772.186,4.157q.238,5.5.468,11a.782.782,0,0,0,.428.744q4.675,2.747,9.329,5.528a.5.5,0,0,0,.59.005c3.152-1.879,6.311-3.746,9.46-5.631a.69.69,0,0,0,.287-.47c.078-1.344.124-2.69.183-4.035q.155-3.607.313-7.212c.061-1.387.125-2.772.169-4.158C-1209.776,737.219-1209.863,736.986-1209.965,736.949Zm-6.8,17.769a6.882,6.882,0,0,1-8.6-.895,9.228,9.228,0,0,1-.039-13.112,6.98,6.98,0,0,1,9.9.057,9.193,9.193,0,0,1,2.653,6.639A8.608,8.608,0,0,1-1216.766,754.718Z" transform="translate(-32.342 -47.474)" fill="#fff"/>
    <path id="Контур_25" data-name="Контур 25" d="M-1186.143,708.5v1.865c-.443-.507-.927-.32-1.417-.245a1.688,1.688,0,0,1-1.76-1.691,1.246,1.246,0,0,0,1.765.309A1.649,1.649,0,0,1-1186.143,708.5Z" transform="translate(-67.135 -24.999)" fill="#fff"/>
    <path id="Контур_26" data-name="Контур 26" d="M-1168.7,712.408c0,.068-.117.134-.179.2-.046-.068-.132-.135-.132-.2-.009-1.27-.007-2.542-.007-3.813.044-.02.088-.042.13-.064.066.088.186.174.186.262C-1168.691,709.995-1168.693,711.2-1168.7,712.408Z" transform="translate(-84.002 -25.079)" fill="#fff"/>
  </g>
</svg>
